<svg xmlns="http://www.w3.org/2000/svg" width="1654.091" height="171.62" viewBox="0 0 1654.091 171.62">
  <defs>
    <style>
      .cls-1 {
        fill: #fff;
        fill-rule: evenodd;
      }
    </style>
  </defs>
  <path id="hadramout" class="cls-1" d="M409.048,1132.87v60.34H375.417v-61.68H318.21v164.25h57.207v-50.17h33.631v50.17h57.207V1131.53H409.048v1.34Zm212.837-1.34H566.019L502,1295.78h60.559l7.6-19.89,52.849-.22,6.369,20.11h60.67l-66.592-164.25h-1.564Zm-26.816,69.5,15.978,41.68-31.285.22Zm116.076-69.5,0.447,164.25h71.174q19.442-1.125,34.525-10.28a75.6,75.6,0,0,0,12.57-9.83,61.017,61.017,0,0,0,11-14.53,80.624,80.624,0,0,0,7.654-20.28,114.485,114.485,0,0,0,2.849-26.98q-0.225-20.67-5.475-34.69T832.375,1156a63.145,63.145,0,0,0-18.1-14.19,89.276,89.276,0,0,0-19.106-7.32,86.873,86.873,0,0,0-16.592-2.62q-7.32-.345-10.447-0.34H711.145Zm51.4,113.63-0.67-62.68,18.547-.22a20.8,20.8,0,0,1,10.28,4.13,28.83,28.83,0,0,1,7.262,9.16q3.352,6.15,3.576,17.44,0.222,12.06-3.8,18.49a30.385,30.385,0,0,1-9.051,9.66,28.5,28.5,0,0,1-13.3,4.02H762.542Zm240.548-5.47a43.834,43.834,0,0,0,10.72-6.03,52.33,52.33,0,0,0,7.83-7.43,34.442,34.442,0,0,0,5.14-8.11,68.756,68.756,0,0,0,3.12-8.38,57.513,57.513,0,0,0,1.57-19.66,79.719,79.719,0,0,0-2.52-19.33,55.506,55.506,0,0,0-6.09-14.58,46.821,46.821,0,0,0-8.43-10.39,50.641,50.641,0,0,0-9.78-6.99,61.87,61.87,0,0,0-26.255-7.26H888.9l1.341,164.25h53.184l-0.782-48.49h5.81l27.6,48.49h63.241Zm-61.119-36.54-0.224-22.01,29.05-.22a14.958,14.958,0,0,1,6.034,1.12,12.9,12.9,0,0,1,4.078,3.29q1.844,2.175,2.067,6.54,0,4.575-1.732,6.76a12.71,12.71,0,0,1-3.743,3.29,13.031,13.031,0,0,1-5.7,1.23H941.971Zm236.859-71.62h-55.87l-64.02,164.25h60.56l7.6-19.89,52.85-.22,6.37,20.11h60.67l-66.6-164.25h-1.56Zm-26.82,69.5,15.98,41.68-31.28.22Zm125.24,94.75h53.52l-0.67-62.24,3.35-.22,26.82,50.61,25.81-50.61h3.46l0.67,62.46h55.87l-2.35-164.25h-58.54l-26.49,55.98-32.96-55.98h-50.61l2.12,160.78v3.47Zm258.76-159.83a86.983,86.983,0,0,0-45.64,45.64,85.917,85.917,0,0,0,0,66.81,87.047,87.047,0,0,0,45.64,45.65,85.941,85.941,0,0,0,66.82,0,87.14,87.14,0,0,0,45.64-45.65,85.917,85.917,0,0,0,0-66.81,87.075,87.075,0,0,0-45.64-45.64A85.941,85.941,0,0,0,1536.01,1135.95Zm19.33,112.34a36.42,36.42,0,0,1-11.29-7.82,38.767,38.767,0,0,1-7.7-11.4,35.494,35.494,0,0,1,0-28.15,38.9,38.9,0,0,1,7.7-11.4,36.59,36.59,0,0,1,11.29-7.82,35.518,35.518,0,0,1,28.16,0,37.778,37.778,0,0,1,19.21,19.22,35.494,35.494,0,0,1,0,28.15,37.778,37.778,0,0,1-19.21,19.22A35.518,35.518,0,0,1,1555.34,1248.29Zm184.57-116.76h-51.06l1.56,118.66a38.968,38.968,0,0,0,6.7,23.35,38.157,38.157,0,0,0,7.38,8.5,47.268,47.268,0,0,0,11.67,7.31,73.182,73.182,0,0,0,16.71,5.03,111.643,111.643,0,0,0,22.57,1.62q17.1-.225,28.66-3.91t18.88-9.16a40.918,40.918,0,0,0,11.12-12.01,51.781,51.781,0,0,0,5.42-12.68,43.91,43.91,0,0,0,1.62-11.06v-7.04q0-1.575-.11-7.15-0.12-5.6-.28-13.52-0.18-7.935-.28-17.55-0.12-9.6-.11-19.44-0.45-22.9-.68-50.95h-50.05l1.34,95.64a23.194,23.194,0,0,1-1.34,8.16,12.762,12.762,0,0,1-4.25,5.76c-2.08,1.67-5.03,2.51-8.82,2.51a15.816,15.816,0,0,1-7.99-1.73,12.6,12.6,0,0,1-4.58-4.47,17.651,17.651,0,0,1-2.18-6.37,48.544,48.544,0,0,1-.56-7.54l-1.34-92.29v0.33Zm231.27,0H1851.74v40.23h36.09l1.67,124.02h51.07l-1.68-124.02h33.41v-40.23h-1.12Z" transform="translate(-318.219 -1129.19)"/>
</svg>
